/* XPM */
static char *result[] = {
/* columns rows colors chars-per-pixel */
"24 24 151 2 ",
"   c #443F2A",
".  c #45412D",
"X  c #45412E",
"o  c #474332",
"O  c #474333",
"+  c #474433",
"@  c #484535",
"#  c #494637",
"$  c #494738",
"%  c #4C4B3F",
"&  c #59533E",
"*  c #4B4B43",
"=  c #4C4B40",
"-  c #4D4B40",
";  c #4D4C40",
":  c #4E4D42",
">  c #4E4D43",
",  c #4F4E45",
"<  c #515044",
"1  c #505049",
"2  c #505149",
"3  c #51514A",
"4  c #52534D",
"5  c #52544E",
"6  c #53544F",
"7  c #535550",
"8  c #545652",
"9  c #545653",
"0  c #545754",
"q  c #555754",
"w  c #555755",
"e  c #555855",
"r  c #545856",
"t  c #585954",
"y  c #515759",
"u  c #565958",
"i  c #565A58",
"p  c #575A59",
"a  c #575B5B",
"s  c #575C5F",
"d  c #585D5D",
"f  c #595D5E",
"g  c #595D5F",
"h  c #595E5F",
"j  c #696453",
"k  c #5A5F61",
"l  c #5D6161",
"z  c #5B6064",
"x  c #5B6164",
"c  c #5B6166",
"v  c #5B6267",
"b  c #5C6266",
"n  c #5C6368",
"m  c #5D6368",
"M  c #5D6369",
"N  c #5D646A",
"B  c #5F666D",
"V  c #5F676F",
"C  c #6F6D63",
"Z  c #606871",
"A  c #606972",
"S  c #616973",
"D  c #606974",
"F  c #616A74",
"G  c #626B75",
"H  c #626B76",
"J  c #636D79",
"K  c #646D7A",
"L  c #656F7D",
"P  c #66717F",
"I  c #7C7C74",
"U  c #657080",
"Y  c #687384",
"T  c #687486",
"R  c #697689",
"E  c #6A778B",
"W  c #6B778B",
"Q  c #6C798E",
"!  c #6C7A8F",
"~  c #6B7A90",
"^  c #6D7C92",
"/  c #6E7C94",
"(  c #6F7F97",
")  c #6F7F99",
"_  c #707F99",
"`  c #748297",
"'  c #70819B",
"]  c #71819B",
"[  c #7384A1",
"{  c #7485A3",
"}  c #7386A5",
"|  c #7486A4",
" . c #7486A5",
".. c #7588A7",
"X. c #7689A8",
"o. c #778AAB",
"O. c #788CAE",
"+. c #7A8DAF",
"@. c #748CB7",
"#. c #798EB1",
"$. c #7A8FB3",
"%. c #7C92BA",
"&. c #7D93BA",
"*. c #7F96C0",
"=. c #7F97C0",
"-. c #7F97C3",
";. c #7F9CD0",
":. c #8097C1",
">. c #8097C2",
",. c #8098C2",
"<. c #8098C3",
"1. c #8199C5",
"2. c #819AC5",
"3. c #819AC6",
"4. c #829AC6",
"5. c #829AC7",
"6. c #829BC7",
"7. c #829BC8",
"8. c #839BC8",
"9. c #839CC8",
"0. c #839CC9",
"q. c #839CCA",
"w. c #839DCA",
"e. c #839DCB",
"r. c #849ECD",
"t. c #859FCF",
"y. c #86A0D0",
"u. c #86A0D1",
"i. c #86A1D2",
"p. c #87A2D3",
"a. c #87A2D4",
"s. c #87A3D5",
"d. c #88A2D2",
"f. c #88A3D5",
"g. c #88A3D6",
"h. c #88A4D6",
"j. c #88A4D7",
"k. c #89A5D8",
"l. c #89A5D9",
"z. c #8AA6DB",
"x. c #8AA7DB",
"c. c #8AA7DC",
"v. c #8BA8DD",
"b. c #8BA8DE",
"n. c #8CA9DF",
"m. c #8CAAE1",
"M. c #8FADE7",
"N. c #90B0EB",
"B. c #91B0EB",
"V. c #92B2ED",
"C. c None",
/* pixels */
"C.C.C.C.C.C.C.C.C.C.C.C.C.C.C.C.C.C.C.C.C.C.C.C.",
"C.C.C.C.C.C.C.C.C.C.m Y P x 3 C.C.C.C.C.C.C.C.C.",
"C.C.C.C.C.C.C.C.a o.s.b.m.i.q.A C.C.C.C.C.C.C.C.",
"C.C.C.C.C.C.C.p r.p.d...{ r.&.V.f C.C.C.C.C.C.C.",
"C.C.C.C.C.C.C.] v.-.@.[ q $.M ;.} # C.C.C.C.C.C.",
"C.C.C.C.C.C.2 =.~ t I = f 9.s C ` r C.C.C.C.C.C.",
"C.C.C.C.C.C.h 4.%.< j X V B.D & l v C.C.C.C.C.C.",
"C.C.C.C.C.C.: =.8.U y n Q t.#.* ) e C.C.C.C.C.C.",
"C.C.C.C.$ f H :.0.M.+.1 S z c W y.>.K # C.C.C.C.",
"C.C.C.6 | l.c.0.7.1.6.G X.w.3.f.6.0.N.b C.C.C.C.",
"C.C.C.( C.,.1.7.0.7.0.g.0.q.0.1.5.*.n.! C.C.C.C.",
"C.C.C./ a.4.7.7.7.0.7.2.6.1.3.e.h.m.5.u C.C.C.C.",
"C.C.C.F C.<.6.0.7.7.0.2.q.b.s.:._ N : C.C.C.C.C.",
"C.C.C.% ! k.u.2.0.7.1.z.0.S 8 , + C.C.C.C.C.C.C.",
"C.C.C.C.C.k O.j.2.6.x.^ 2 C.C.C.C.C.C.C.C.C.C.C.",
"C.C.C.C.C.C.- ' a.s.B . C.C.C.C.C.C.C.C.C.C.C.C.",
"C.C.C.C.C.C.C.> ,.R   C.C.C.C.C.C.C.C.C.C.C.C.C.",
"C.C.C.C.C.C.C.C...d C.C.C.C.C.C.C.C.C.C.C.C.C.C.",
"C.C.C.C.C.C.C.@ | *.g 0 w C.C.C.C.C.C.C.C.C.C.C.",
"C.C.C.C.C.C.C.C.4 T E J  .e C.C.C.O C.C.C.C.C.C.",
"C.C.C.C.C.C.C.C.C.C.C.C.; Z i 9 @ o C.C.C.C.C.C.",
"C.C.C.C.C.C.C.C.C.C.C.C.C.7 L 5 C.C.C.C.C.C.C.C.",
"C.C.C.C.C.C.C.C.C.C.C.C.C.C.C.C.C.C.C.C.C.C.C.C.",
"C.C.C.C.C.C.C.C.C.C.C.C.C.C.C.C.C.C.C.C.C.C.C.C."
};
