/* XPM */
static char *result[] = {
/* columns rows colors chars-per-pixel */
"24 24 112 2 ",
"   c #2B302A",
".  c #2E332D",
"X  c #323730",
"o  c #343933",
"O  c #363B35",
"+  c #363C35",
"@  c #373C36",
"#  c #3A3E39",
"$  c #3A3F39",
"%  c #3B3F3A",
"&  c #3C413B",
"*  c #3D423C",
"=  c #3F433E",
"-  c #40443F",
";  c #414540",
":  c #424741",
">  c #444843",
",  c #454944",
"<  c #464A45",
"1  c #474B46",
"2  c #484C47",
"3  c #484C48",
"4  c #494D48",
"5  c #494D49",
"6  c #4A4D49",
"7  c #4D504C",
"8  c #4D514C",
"9  c #4E514D",
"0  c #4E524E",
"q  c #4F524E",
"w  c #50534F",
"e  c #50544F",
"r  c #515450",
"t  c #525551",
"y  c #535653",
"u  c #545753",
"i  c #555855",
"p  c #565956",
"a  c #575A56",
"s  c #585A57",
"d  c #585B57",
"f  c #585B58",
"g  c #5A5E59",
"h  c #5A5F59",
"j  c #5B5E5B",
"k  c #5C5E5B",
"l  c #5C5F5C",
"z  c #5D5F5C",
"x  c #5D605C",
"c  c #5D605D",
"v  c #5E605D",
"b  c #5F615E",
"n  c #5F615F",
"m  c #5F625F",
"M  c #606260",
"N  c #616361",
"B  c #616461",
"V  c #626561",
"C  c #636562",
"Z  c #666765",
"A  c #656964",
"S  c #666866",
"D  c #686A68",
"F  c #696B69",
"G  c #6A6B6A",
"H  c #6B6C6A",
"J  c #6B6C6B",
"K  c #6B6D6B",
"L  c #6D6E6D",
"P  c #6E6F6D",
"I  c #6E706E",
"U  c #6F706F",
"Y  c #707170",
"T  c #717271",
"R  c #737473",
"E  c #747473",
"W  c #747574",
"Q  c #757675",
"!  c #767675",
"~  c #777877",
"^  c gray47",
"/  c #787978",
"(  c #7A7A79",
")  c gray48",
"_  c #7A7B7A",
"`  c #7B7B7B",
"'  c #797D78",
"]  c #7C7C7C",
"[  c #7D7E7D",
"{  c #7E7E7E",
"}  c gray50",
"|  c gray51",
" . c #838283",
".. c #848384",
"X. c #848484",
"o. c gray52",
"O. c #868586",
"+. c #868686",
"@. c #878687",
"#. c gray53",
"$. c #888788",
"%. c #898889",
"&. c #8A898A",
"*. c #8B8A8B",
"=. c #8B8B8B",
"-. c #8C8B8C",
";. c #8C8C8D",
":. c #8D8C8D",
">. c #8E8D8E",
",. c #919092",
"<. c #939293",
"1. c None",
/* pixels */
"1.1.1.1.1.1.1.1.1.1.1.1.1.1.1.1.1.1.1.1.1.1.1.1.",
"1.1.1.1.1.1.1.1.1.1.1.1.1.1.1.1.1.1.1.1.1.1.1.1.",
"1.1.1.1.1.1.1.1.O w S Y I U T b ; 1.1.1.1.1.1.1.",
"1.1.1.1.1.1.1.@ b ) C T =.X.Z ^ / ; 1.1.1.1.1.1.",
"1.1.1.1.1.1.1.7 X.g X c %.} e A ~ j 1.1.1.1.1.1.",
"1.1.1.1.1.1.1.i V ' o D O.O.x h > F 1.1.1.1.1.1.",
"1.1.1.1.1.1.1.n 8 . O Z :.:.p   : B 1.1.1.1.1.1.",
"1.1.1.1.1.1.1.n R @ = { D ^ Q + r ( = 1.1.1.1.1.",
"1.1.1.1.1.1.- T ;.K Q %.a Y $.L _ @.C % 1.1.1.1.",
"1.1.1.1.1.1.2 y #.o.O.` m k +.| ,.t 0 s 1.1.1.1.",
"1.1.1.1.1.5 4 1.b *.&.w & W | >.G @ 4 H 1.1.1.1.",
"1.1.1.1.1.z q 1.1.j =.E ] *.$.l & 1.$ J , 1.1.1.",
"1.1.1.1.1.u * 1.1.1.M -.+.( 6 1.1.1.1.> 1.1.1.1.",
"1.1.1.1.1.* 1.1.1.1.3 o.[ < 1.1.1.1.1.1.1.1.1.1.",
"1.1.1.1.1.1.1.1.1.1.< ..! - 1.1.1.1.1.1.1.1.1.1.",
"1.1.1.1.1.1.1.1.1.1.; } <. .K u 1.1.1.1.1.1.1.1.",
"1.1.1.1.1.1.1.1.1.1.1.9 N s f P a 1.1.1.1.1.1.1.",
"1.1.1.1.1.1.1.1.1.1.1.1.1.1.1.1.d , 1.1.1.1.1.1.",
"1.1.1.1.1.1.1.1.1.1.1.1.1.1.1.1.= v * 1.1.1.1.1.",
"1.1.1.1.1.1.1.1.1.1.1.1.1.1.1.1.1.1 w # 1.1.1.1.",
"1.1.1.1.1.1.1.1.1.1.1.1.1.1.1.1.1.1.1.1.1.1.1.1.",
"1.1.1.1.1.1.1.1.1.1.1.1.1.1.1.1.1.1.1.1.1.1.1.1.",
"1.1.1.1.1.1.1.1.1.1.1.1.1.1.1.1.1.1.1.1.1.1.1.1.",
"1.1.1.1.1.1.1.1.1.1.1.1.1.1.1.1.1.1.1.1.1.1.1.1."
};
