/* XPM */
static char *result[] = {
/* columns rows colors chars-per-pixel */
"24 24 39 1 ",
"  c #5DFB424D24E7",
". c #5E6A45302A3D",
"X c #61E546D029E5",
"o c #64FE4A8A2DBE",
"O c #69BA4CD22E6E",
"+ c #7077509E2E40",
"@ c #67044DC93208",
"# c #6A2E4EB0310A",
"$ c #6C6A51FC3467",
"% c #6E2B55D43965",
"& c #7251554134DC",
"* c #76C5589736FF",
"= c #7B075ADE36FA",
"- c #724B577238CD",
"; c #74D359883A53",
": c #7BCA5D493B1F",
"> c #7E4E608E3E91",
", c #79705F384016",
"< c #7D1D61A04189",
"1 c #81525F48395B",
"2 c #82A062553E13",
"3 c #84FB65B4423F",
"4 c #876C68B2455E",
"5 c #8B696AD1457F",
"6 c #877F6ACF487C",
"7 c #8C876DF049EB",
"8 c #91576F27482F",
"9 c #8E7571074D7E",
"0 c #934572F44D15",
"q c #8FB07392507D",
"w c #9389760851F0",
"e c #965079A555F9",
"r c #9B087B6D557D",
"t c #97AF7B76581E",
"y c #9A6A7DBA59D7",
"u c #9DF781225D03",
"i c #A1AD82305BEB",
"p c #A1D085396120",
"a c #A5C789D7661A",
/* pixels */
"<42224552=+$$>2:,::=237,",
">rr0tirw004+$25707787wt,",
";wrwttttrtw&$3uetqq9797*",
"-7twwwtwtt0&$2uuewtq797:",
"&::236w6995*&76wyy9q977*",
"$@$$o.O@$O$$$Oo$##@#o..@",
";*&=>:;<:2742>243%,4;==:",
"78500;%20tiirrur8;=80ww0",
"tueq4$$*wuiuwetq7*-3uupy",
"tqet3$%<ttpw9euu9@-7aywt",
">==3=&->=>4>3wwq7*-34:,:",
"o$$oo$;$o.XoXO@$X@$%%%-#",
"$><$&&-&;&$;%%-$o$$%,%%%",
"-4227245922:$=:>=+*-;,,-",
"+2ww7w9rr2=&-222113213*%",
"*4887uw6002$@:&+:2+:844:",
">ww50r2$3&=&$&#;&&27tt02",
"O$$+&$o$@oo#@O@$$@@##oO&",
":2=25*-652;:14222=;62323",
"wwwri*&ryyr0eryty:=pyriy",
"wqwt0=%wppyw9ewyy:&tyew7",
"wqeyr=-wpytw7wwyr*&wyte0",
"36775:-7w33:;:367;-=3776",
"###&O@@&@ oXX@@X#-%@oXo&"
};
