/* XPM */
static char *result[] = {
/* columns rows colors chars-per-pixel */
"24 24 72 1 ",
"  c #221220",
". c #29172D",
"X c #341E26",
"o c #311C2F",
"O c #372030",
"+ c #382131",
"@ c #44292B",
"# c #52332F",
"$ c #593229",
"% c #402732",
"& c #452836",
"* c #4A2B37",
"= c #482D34",
"- c #4E2E38",
"; c #533239",
": c #573738",
"> c #58363B",
", c #5C3B39",
"< c #5D3B39",
"1 c #5E3C39",
"2 c #673B2E",
"3 c #623D3D",
"4 c #663F3D",
"5 c #664035",
"6 c #6B4437",
"7 c #6C4437",
"8 c #67403E",
"9 c #6D4538",
"0 c #724333",
"q c #874E37",
"w c #824D39",
"e c #854D38",
"r c #864D38",
"t c #874D38",
"y c #864F3A",
"u c #88503B",
"i c #8E523A",
"p c #8E533B",
"a c #8F533B",
"s c #91533A",
"d c #90533B",
"f c #91543C",
"g c #92543C",
"h c #92553C",
"j c #93553C",
"k c #94553C",
"l c #94563D",
"z c #95573E",
"x c #97593F",
"c c #9A5B41",
"v c #9A5C41",
"b c #9A5C42",
"n c #9B5C42",
"m c #9A5A47",
"M c #985948",
"N c #995948",
"B c #AF6645",
"V c #B16746",
"C c #B26746",
"Z c #B26846",
"A c #B36947",
"S c #B46A48",
"D c #B76B49",
"F c #B76C4A",
"G c #B86C4A",
"H c #B86B4C",
"J c #BA6C4C",
"K c #BA6D4D",
"L c #BB6D4D",
"P c #BB6E4D",
"I c #BC6E4D",
"U c None",
/* pixels */
"UUUUUUUUUUUUUUUUUUUUUUUU",
"UUUUUUUUUUUUUUUUUUUUUUUU",
"UUUUUUUUUUUUUUUUUUUUUUUU",
"UUUUUUUUUUUUUUUUUUUUUUUU",
"UUUUUUUUUUUUUUUUUUUUUUUU",
"UUUUUUUUUUUUUUUUUUUUUUUU",
"UUUUUUUUUUUUUUUUUUUUUUUU",
"UUUUkL-UUUUUUUUUZMOUUUUU",
"UUUUbH89ajhhhhjuGm1UUUUU",
"UUUUgP* UUUUUUUUVMoUUUUU",
"UUUUxJ>#qrerrrt0SN=UUUUU",
"UUUUcH35idaddddwDm:UUUUU",
"UUUUsI&UUUUUUUUUBM.UUUUU",
"UUUUnH46pgffffgyFm,UUUUU",
"UUUUzK;@UUUUUUU2AM%UUUUU",
"UUUUlL-XUUUUUUU$ZM+UUUUU",
"UUUUvH47pgffffgyFm<UUUUU",
"UUUUgP*UUUUUUUUUCMoUUUUU",
"UUUUUUUUUUUUUUUUUUUUUUUU",
"UUUUUUUUUUUUUUUUUUUUUUUU",
"UUUUUUUUUUUUUUUUUUUUUUUU",
"UUUUUUUUUUUUUUUUUUUUUUUU",
"UUUUUUUUUUUUUUUUUUUUUUUU",
"UUUUUUUUUUUUUUUUUUUUUUUU"
};
