/* XPM */
static char *result[] = {
/* columns rows colors chars-per-pixel */
"24 24 39 1 ",
"  c #6E5336",
". c #6F573B",
"X c #6D583C",
"o c #715739",
"O c #755C3D",
"+ c #7B5D3E",
"@ c #7C613E",
"# c #6C5D43",
"$ c #745E40",
"% c #7B5F40",
"& c #726247",
"* c #7D6242",
"= c #77654A",
"- c #79664A",
"; c #7D6A4D",
": c #815E3E",
"> c #82613F",
", c #846443",
"< c #896645",
"1 c #856946",
"2 c #8B6A46",
"3 c #846B4B",
"4 c #8C6D49",
"5 c #936B47",
"6 c #926E4A",
"7 c #8E714C",
"8 c #93734D",
"9 c #98734E",
"0 c #96784F",
"q c #836E50",
"w c #877052",
"e c #887153",
"r c #967650",
"t c #997751",
"y c #967850",
"u c #9B7A52",
"i c #A17D54",
"p c #A58056",
"a c #A48058",
/* pixels */
"O*y2681+,14,%47,:rr,2r4,",
"4>,4,,84*,%,:*71,4@*,,4r",
"i,-<%-,it,34,e2y8%=*,;4i",
"64*,4OO<64*4:*2922%<6,,8",
"<6,<,+O,,2O+,,,<2* >2,,*",
"u,=%,3,8u4&O,q%88o&*,e,y",
"r*X*+12112*,,$,71,*,,$@8",
"+3y4,y4+,144298,,87*<641",
",3i4+74<:4u,4444,8*O*y1,",
"t6,2,42r142,<$$480%,<,,r",
"i,q,*;,8r%3,O#$tu<;<,3%i",
"20,,,,<,**$%*,2964O,,O*4",
"O5+:<,,2*OoO2+<226<<@+,+",
"t2q%%=O67O;,<qOti,q2,q*8",
"r6%,**,648,621,0u2O,6*,7",
"+384+r825ri6,415234*2ut,",
">,y6%8,<5rr5,,42:*865t4*",
"16,6,+$rr,O41*8y1@,68523",
"4+;<,3%88%;<@e4yu,&O<;*y",
"+,,8<11496*,2,O*<4O,,%**",
",,+,2,:,<2++<+O,2<<0,oO+",
"9%#oO;*881qO,;,0a1;1,=O9",
"71*%,*28r2,22,,4r<O,44<7",
",78,2y3*8766@4**,4624i81"
};
