/* XPM */
static char *result[] = {
/* columns rows colors chars-per-pixel */
"40 20 181 2 ",
"   c #405FDF",
".  c #3F5EDF",
"X  c #415FDF",
"o  c #4160DF",
"O  c #4260DF",
"+  c #395ADE",
"@  c #3D5DDE",
"#  c #3C5BDE",
"$  c #3456DE",
"%  c #3355DE",
"&  c #3A5ADE",
"*  c #3B5BDE",
"=  c #3D5CDE",
"-  c #3C5CDE",
";  c #5D76DF",
":  c #4966DF",
">  c #3859DE",
",  c #516DDF",
"<  c #536EDF",
"1  c #788BDF",
"2  c #8193DF",
"3  c #506CDF",
"4  c #3758DE",
"5  c #5973DF",
"6  c #4A67DF",
"7  c #4E6ADF",
"8  c #3656DE",
"9  c #99A6DF",
"0  c #2E50DE",
"q  c #AAB3DF",
"w  c #5670DF",
"e  c #9AA7DF",
"r  c #8A9ADF",
"t  c #6F84DF",
"y  c #B2BADF",
"u  c #4563DF",
"i  c #6980DF",
"p  c #2A4DDE",
"a  c #8C9CDF",
"s  c #778BDF",
"d  c #3455DE",
"f  c #3657DE",
"g  c #96A4DF",
"h  c #768ADF",
"j  c #A8B2DF",
"k  c #3052DE",
"l  c #294DDE",
"z  c #8294DF",
"x  c #7F91DF",
"c  c #8B9BDF",
"v  c #2B4EDE",
"b  c #8899DF",
"n  c #7388DF",
"m  c #3556DE",
"M  c #3F5FDF",
"N  c #BEC4DF",
"B  c #3354DE",
"V  c #697FDF",
"C  c #98A6DF",
"Z  c #3757DE",
"A  c #7287DF",
"S  c #8797DF",
"D  c #8D9CDF",
"F  c #647CDF",
"G  c #294CDE",
"H  c #8596DF",
"J  c #4D69DF",
"K  c #A4AFDF",
"L  c #4866DF",
"P  c #5F78DF",
"I  c #8798DF",
"U  c #8495DF",
"Y  c #677EDF",
"T  c #3F5EDE",
"R  c #3959DE",
"E  c #637BDF",
"W  c #9FABDF",
"Q  c #9DAADF",
"!  c #8092DF",
"~  c #4C68DF",
"^  c #4261DF",
"/  c #405EDF",
"(  c #3E5EDE",
")  c #4361DF",
"_  c #3E5DDE",
"`  c #4462DF",
"'  c #3858DE",
"]  c #4A66DF",
"[  c #4865DF",
"{  c #4362DF",
"}  c #90A0DF",
"|  c #96A5DF",
" . c #4F6BDF",
".. c #798CDF",
"X. c #9DA9DF",
"o. c #A1ACDF",
"O. c #8898DF",
"+. c #8697DF",
"@. c #7186DF",
"#. c #AFB8DF",
"$. c #9BA9DF",
"%. c #9EABDF",
"&. c #93A2DF",
"*. c #A7B2DF",
"=. c #98A5DF",
"-. c #8F9EDF",
";. c #97A5DF",
":. c #5A74DF",
">. c #3E5DDF",
",. c #4663DF",
"<. c #4B67DF",
"1. c #BDC3DF",
"2. c #405FDE",
"3. c #6D83DF",
"4. c #A6B0DF",
"5. c #5872DF",
"6. c #95A2DF",
"7. c #B0B8DF",
"8. c #AAB4DF",
"9. c #5771DF",
"0. c #8F9FDF",
"q. c #7489DF",
"w. c #3153DE",
"e. c #909FDF",
"r. c #8E9DDF",
"t. c #4664DF",
"y. c #BCC2DF",
"u. c #92A1DF",
"i. c #9AA8DF",
"p. c #506BDF",
"a. c #B3BBDF",
"s. c #A5AFDF",
"d. c #647BDF",
"f. c #9BA7DF",
"g. c #ADB7DF",
"h. c #A5B0DF",
"j. c #A2AEDF",
"k. c #A1ADDF",
"l. c #9CA9DF",
"z. c #627ADF",
"x. c #7488DF",
"c. c #3254DE",
"v. c #A9B3DF",
"b. c #A7B1DF",
"n. c #687FDF",
"m. c #ACB5DF",
"M. c #284BDE",
"N. c #B0B9DF",
"B. c #BAC0DF",
"V. c #A9B4DF",
"C. c #5B74DF",
"Z. c #A2ADDF",
"A. c #3253DE",
"S. c #2D50DE",
"D. c #2146DE",
"F. c #6C82DF",
"G. c #A0ABDF",
"H. c #5570DF",
"J. c #B6BEDF",
"K. c #7D90DF",
"L. c #8395DF",
"P. c #7A8DDF",
"I. c #2F51DE",
"U. c #7B8EDF",
"Y. c #8D9DDF",
"T. c #5772DF",
"R. c #8394DF",
"E. c #546FDF",
"W. c #758ADF",
"Q. c #5D77DF",
"!. c #677FDF",
"~. c #4765DF",
"^. c #7589DF",
"/. c #6B81DF",
"(. c #7085DF",
"). c #6E84DF",
"_. c #4764DF",
"`. c #667EDF",
"'. c #526EDF",
"]. c #667DDF",
"[. c white",
/* pixels */
"                                                                                ",
"    . X   .       o O   . X   .     .                                           ",
"  .   + @ o # #   $ % # o & @ X * =   .                                         ",
"    - ; : > , < = 1 2 3 4 5 6 & < 7 -                                           ",
"  o 8 1 9 0 q w e r t y u e i p a s d O                                         ",
"  . o f g q h , j k l z x c i v b n m o                                         ",
"  M X & w N B V C B Z A S D F G H h d o                                         ",
"      - J K & L y w * q P I U k K Y 4 o                                         ",
"      @ 6 U T R E W Q ! 4 ~ 9 W I =                                             ",
"    .   T &   o R - o f o - + ^ 4 T     . .       .                 .       M   ",
"    .     / ( T ) _ = ^ . ^ T - ^             ( o     T _ T   T T O   .     .   ",
"  .   T T u ` X ' : ] #   f [ : +   = & . . @ ` R - _ { u ^ = ^ o m T   = .   . ",
"    - 7 j } |  ...X.o.U % O.X.Q +.k @.#.= _ $.%.X.[ &.e C E n *.=.-.. ) ;.u _   ",
"    R :.K >.,.<.1.` d 2.3.4.f X 5.* 6.7.F R 8.k U -.9 9.,.f 0.q.w.e.r.> #.t._   ",
"    * < y.u.i.p.z a.s.7 r q.m u $ :.g d.f.B g...h.d.j.k.l.z.H x.c.: v./ b.` _   ",
"    R :.C p m _ d R n.m.! -.M.R B H N.-.B.u V.! C.Z Z.O A.S.r.i D.F.G.' U O T   ",
"    & H.J.K.L.5.e P.O.-.X m.H H O.W J I.a U.;.>.> - 8.Y.+.T.+.K R.q E.= W.) T   ",
"    T o Q.Y !.~.w ^./.T & ` (.). . .T ( _. .7 { X _ E.`.i '.L ].F ) & O 5 o .   ",
"  .   T R 4 Z _ & m Z M X ( m f - -     _ - - T /   * 4 f * _ 4 4 ( o T & .   . ",
"    .   o o o     O o   .   o o       .         . . X o o     o o   .       .   "
};
